<svg xmlns="http://www.w3.org/2000/svg" width="54.999" height="55" viewBox="0 0 54.999 55">
  <path id="Icon_awesome-music" data-name="Icon awesome-music" d="M55,3.439A3.435,3.435,0,0,0,50.529.161L16.156,10.313a3.436,3.436,0,0,0-2.406,3.276V41.671a14.86,14.86,0,0,0-3.437-.421C4.617,41.25,0,44.327,0,48.124S4.617,55,10.312,55s10.312-3.078,10.312-6.875v-25.1l27.5-8.059V34.8a14.86,14.86,0,0,0-3.437-.421c-5.7,0-10.312,3.078-10.312,6.875s4.617,6.875,10.312,6.875S55,45.047,55,41.25V3.439Z" transform="translate(0 0.001)" fill="#fff"/>
</svg>
