<svg xmlns="http://www.w3.org/2000/svg" width="69.339" height="65" viewBox="0 0 69.339 65">
  <path id="Icon_metro-traffic-cone" data-name="Icon metro-traffic-cone" d="M37.857,43.093c8.631,0,15.862-2.932,16.3-6.764-1.286-3.6-2.687-7.526-4.063-11.383-.953,2.748-6.23,4.7-12.236,4.7s-11.282-1.95-12.236-4.7L21.562,36.328c.437,3.832,7.663,6.764,16.295,6.764Zm0-24.215c4.059,0,7.826-1.257,8.931-3.211-1.52-4.269-2.824-7.934-3.651-10.242-.549-1.542-3.037-2.34-5.28-2.34s-4.731.8-5.28,2.34q-1.825,5.113-3.65,10.238c1.1,1.958,4.874,3.214,8.93,3.214ZM69.566,46.661,56,41.193l1.564,4.359c-.079,4.619-9.043,8.3-19.711,8.3s-19.635-3.68-19.711-8.3l1.564-4.359L6.149,46.661c-3.8,1.531-3.965,4.366-.354,6.3L31.3,66.636a15.566,15.566,0,0,0,13.117,0L69.923,52.959c3.608-1.932,3.445-4.767-.358-6.3Z" transform="translate(-3.188 -3.085)" fill="#fff"/>
</svg>
