<svg xmlns="http://www.w3.org/2000/svg" width="75" height="60" viewBox="0 0 75 60">
  <path id="Icon_awesome-car-crash" data-name="Icon awesome-car-crash" d="M16.787,25.876,15.332,31.31a11.05,11.05,0,0,0-.282,4.03l-4.125,3.4a1.06,1.06,0,0,1-1.713-1.028l1.809-8.986a1.059,1.059,0,0,0-.937-1.264L.959,26.574a1.06,1.06,0,0,1-.485-1.938l7.635-5.074A1.062,1.062,0,0,0,8.34,18L2.515,10.924A1.061,1.061,0,0,1,3.544,9.211l8.986,1.809a1.061,1.061,0,0,0,1.266-.937L14.68.959A1.061,1.061,0,0,1,16.62.474l5.074,7.633a1.062,1.062,0,0,0,1.557.232l7.078-5.825a1.06,1.06,0,0,1,1.713,1.028l-1.328,6.581c-.318.357-.636.714-.927,1.1L26.02,16.26l-1.255,1.678A11.3,11.3,0,0,0,16.787,25.876ZM74.744,41.4l-1.455,5.433a7.343,7.343,0,0,1-2.057,3.441,7.837,7.837,0,0,1-1.027.82l-1.639,6.121a3.746,3.746,0,0,1-4.593,2.652l-3.622-.97A3.75,3.75,0,0,1,57.7,54.308l.97-3.622L29.692,42.921l-.97,3.622A3.75,3.75,0,0,1,24.129,49.2l-3.622-.97a3.748,3.748,0,0,1-2.652-4.593l1.639-6.121a7.806,7.806,0,0,1-.479-1.225,7.342,7.342,0,0,1-.061-4.008l1.455-5.434A7.445,7.445,0,0,1,24.732,21.9a7.539,7.539,0,0,1,2.167-.553l2.125-2.839,3.768-5.035A13.2,13.2,0,0,1,37.237,9.68,12.866,12.866,0,0,1,39,8.919a13.009,13.009,0,0,1,3.778-.708,13.231,13.231,0,0,1,3.918.445l14.376,3.852a13.208,13.208,0,0,1,3.615,1.574,13.056,13.056,0,0,1,6.02,9.549l.745,6.245.421,3.521a7.557,7.557,0,0,1,2.665,3.507,7.4,7.4,0,0,1,.205,4.5ZM29.951,27.462a3.538,3.538,0,0,0-4.59,2.64,3.536,3.536,0,0,0,2.654,4.581c2.174.582,5.337,1.818,5.917-.349S32.123,28.044,29.951,27.462Zm34.055,3.3-.745-6.245a5.624,5.624,0,0,0-4.13-4.767L44.755,15.9a5.626,5.626,0,0,0-5.96,2.064L35.027,23l20.156,5.4,8.823,2.365Zm2.167,6.4c-2.174-.582-6.3,1.794-6.885,3.96s2.776,2.679,4.95,3.261a3.738,3.738,0,1,0,1.935-7.221Z" transform="translate(0 0.001)" fill="#fff"/>
</svg>
